<svg width="640" height="480" xmlns="http://www.w3.org/2000/svg">
 <!-- Created with Method Draw - http://github.com/duopixel/Method-Draw/ -->
 <g>
  <title>background</title>
  <rect fill="#fff" id="canvas_background" height="482" width="642" y="-1" x="-1"/>
  <g display="none" overflow="visible" y="0" x="0" height="100%" width="100%" id="canvasGrid">
   <rect fill="url(#gridpattern)" stroke-width="0" y="0" x="0" height="100%" width="100%"/>
  </g>
 </g>
 <g>
  <title>Layer 1</title>
  <rect stroke="#000" id="svg_1" height="32.000001" width="69.500011" y="182.000001" x="34.499987" fill="#67b7e5"/>
  <rect rx="12" id="svg_2" height="18.999981" width="50.49995" y="189.000017" x="127.250147" stroke-opacity="null" stroke="#000" fill="#67b7e5"/>
  <ellipse ry="9.249991" rx="9.499991" id="svg_3" cy="198.750007" cx="134.250141" stroke-opacity="null" stroke="#000" fill="#67b7e5"/>
  <line stroke="#000" stroke-linecap="null" stroke-linejoin="null" id="svg_5" y2="198.000008" x2="134.250139" y1="198.000008" x1="104.250169" fill-opacity="null" stroke-opacity="null" stroke-width="null" fill="none"/>
  <rect rx="12" id="svg_7" height="18.999981" width="50.49995" y="138.000067" x="291.249998" stroke-opacity="null" stroke="#000" fill="#67b7e5"/>
  <ellipse ry="9.249991" rx="9.499991" id="svg_8" cy="147.250058" cx="296.749994" stroke-opacity="null" stroke="#000" fill="#67b7e5"/>
  <line stroke="#000" transform="rotate(-31.668773651123047 270.9497375488281,163.76579284667963) " stroke-linecap="null" stroke-linejoin="null" id="svg_9" y2="163.765777" x2="299.941523" y1="163.765777" x1="241.957931" fill-opacity="null" stroke-opacity="null" stroke-width="null" fill="none"/>
  <rect rx="12" id="svg_10" height="18.999981" width="50.49995" y="192.000014" x="287.249979" stroke-opacity="null" stroke="#000" fill="#67b7e5"/>
  <ellipse ry="9.249991" rx="9.499991" id="svg_11" cy="201.750004" cx="294.249973" stroke-opacity="null" stroke="#000" fill="#67b7e5"/>
  <line stroke="#000" transform="rotate(27.862380981445312 268.90698242187506,190.69538879394528) " stroke-linecap="null" stroke-linejoin="null" id="svg_12" y2="190.695387" x2="296.361643" y1="190.695387" x1="241.452298" fill-opacity="null" stroke-opacity="null" stroke-width="null" fill="none"/>
  <rect rx="12" id="svg_13" height="18.999981" width="50.49995" y="249.999959" x="286.749999" stroke-opacity="null" stroke="#000" fill="#67b7e5"/>
  <ellipse ry="9.249991" rx="9.499991" id="svg_14" cy="259.749949" cx="293.749993" stroke-opacity="null" stroke="#000" fill="#67b7e5"/>
  <line stroke="#000" transform="rotate(34.2673225402832 266.9156188964842,242.1237945556641) " stroke-linecap="null" stroke-linejoin="null" id="svg_15" y2="242.123777" x2="295.773558" y1="242.123777" x1="238.057719" fill-opacity="null" stroke-opacity="null" stroke-width="null" fill="none"/>
  <ellipse stroke-dasharray="2,2" stroke="#000" ry="97.749899" rx="97.749899" id="svg_16" cy="198.749998" cx="230.000041" fill-opacity="null" stroke-opacity="null" stroke-width="2" fill="none"/>
  <rect stroke="#000" rx="13" id="svg_18" height="24.184662" width="45.499958" y="166.50004" x="200.250074" stroke-opacity="null" stroke-width="2" fill="#DDDDDD"/>
  <rect stroke="#000" rx="100" id="svg_19" height="24.449974" width="44.999951" y="210.499997" x="200.750073" stroke-opacity="null" stroke-width="2" fill="#DDDDDD"/>
  <line stroke-linecap="null" stroke-linejoin="null" id="svg_21" y2="93.000112" x2="-29.749698" y1="93.000112" x1="-30.749697" stroke-opacity="null" stroke-width="2" stroke="#000" fill="none"/>
  <line stroke-linecap="null" stroke-linejoin="null" id="svg_24" y2="226.499979" x2="245.250029" y1="203.000003" x1="292.749982" fill-opacity="null" stroke-opacity="null" stroke-width="null" stroke="#000" fill="none"/>
  <line stroke-linecap="null" stroke-linejoin="null" id="svg_28" y2="182.000024" x2="199.750074" y1="198.000008" x1="177.250097" fill-opacity="null" stroke-opacity="null" stroke-width="null" stroke="#000" fill="none"/>
  <line stroke-linecap="null" stroke-linejoin="null" id="svg_29" y2="198.500007" x2="176.750097" y1="221.499984" x1="200.250074" fill-opacity="null" stroke-opacity="null" stroke-width="null" stroke="#000" fill="none"/>
  <rect stroke="#000" id="svg_30" height="32.000001" width="74.500004" y="130.00005" x="386.499637" fill="#67b7e5"/>
  <rect stroke="#000" id="svg_31" height="32.000001" width="69.500011" y="182.000001" x="34.499987" fill="#67b7e5"/>
  <rect stroke="#000" id="svg_32" height="32.000001" width="74.500004" y="185.999997" x="385.499638" fill="#67b7e5"/>
  <rect stroke="#000" id="svg_33" height="32.000001" width="75.000007" y="243.499941" x="384.999638" fill="#67b7e5"/>
  <line stroke-linecap="null" stroke-linejoin="null" id="svg_34" y2="146.000059" x2="386.249889" y1="146.500059" x1="341.749933" stroke-opacity="null" stroke="#000" fill="none"/>
  <line stroke-linecap="null" stroke-linejoin="null" id="svg_35" y2="200.000006" x2="385.74989" y1="200.000006" x1="337.749937" stroke-opacity="null" stroke="#000" fill="none"/>
  <line stroke-linecap="null" stroke-linejoin="null" id="svg_36" y2="258.499948" x2="386.249889" y1="258.499948" x1="337.249938" stroke-opacity="null" stroke="#000" fill="none"/>
  <text xml:space="preserve" text-anchor="start" font-family="Helvetica, Arial, sans-serif" font-size="12" id="svg_38" y="202.000004" x="43.750229" stroke-opacity="null" stroke-width="0" stroke="#000" fill="#000000">Publisher</text>
  <text xml:space="preserve" text-anchor="start" font-family="Helvetica, Arial, sans-serif" font-size="12" id="svg_39" y="150.500054" x="389.749893" stroke-opacity="null" stroke-width="0" stroke="#000" fill="#000000">Subscriber 1</text>
  <text style="cursor: move;" xml:space="preserve" text-anchor="start" font-family="Helvetica, Arial, sans-serif" font-size="12" id="svg_41" y="206" x="388.749894" stroke-opacity="null" stroke-width="0" stroke="#000" fill="#000000">Subscriber 2</text>
  <text style="cursor: move;" xml:space="preserve" text-anchor="start" font-family="Helvetica, Arial, sans-serif" font-size="12" id="svg_42" y="263.999939" x="389.249894" stroke-opacity="null" stroke-width="0" stroke="#000" fill="#000000">Subscriber 3</text>
  <text xml:space="preserve" text-anchor="start" font-family="Helvetica, Arial, sans-serif" font-size="8" id="svg_43" y="182.000024" x="209.250065" stroke-opacity="null" stroke-width="0" stroke="#000" fill="#000000">Topic A</text>
  <text xml:space="preserve" text-anchor="start" font-family="Helvetica, Arial, sans-serif" font-size="8" id="svg_44" y="224.499982" x="209.250065" stroke-opacity="null" stroke-width="0" stroke="#000" fill="#000000">Topic B</text>
  <path d="m198.716171,217.971634c0,0.128372 0.079239,0.138138 0.128372,0.256744c0.069473,0.167709 0.256744,0.256729 0.256744,0.385101c0,0.128372 0.058899,0.217392 0.128372,0.385117c0.049118,0.118591 0,0.256729 0,0.385101c0,0.128372 0.037598,0.16597 0.128372,0.256744c0.090775,0.090775 0.187256,0.217377 0.256729,0.385101c0.049133,0.118607 0.037598,0.294342 0.128372,0.385117c0.090775,0.090775 0.256744,0.128372 0.256744,0.256729c0,0.128372 -0.08902,0.315643 -0.256744,0.385117c-0.118607,0.049133 -0.217392,0.058899 -0.385101,0.128372c-0.118607,0.049133 -0.256744,0 -0.385117,0c-0.128372,0 -0.276291,-0.098251 -0.513474,0c-0.167725,0.069473 -0.256744,0.128372 -0.385117,0.128372c-0.128372,0 -0.256729,0 -0.513474,0c-0.128372,0 -0.217392,-0.058899 -0.385117,-0.128372c-0.118591,-0.049118 -0.256729,0 -0.385101,0l-0.256744,0" id="svg_59" fill-opacity="null" stroke-opacity="null" stroke-width="null" stroke="#000" fill="none"/>
  <path d="m199.871506,182.028137c-0.128372,0 -0.187271,0.08902 -0.256744,0.256744c-0.049118,0.118591 0,0.256729 0,0.385101c0,0.128372 0,0.256744 0,0.385117c0,0.128357 0,0.256729 0,0.385101c0,0.385117 0,0.641846 0,0.89859c0,0.128372 0.049118,0.26651 0,0.385101c-0.069473,0.167725 -0.128372,0.256744 -0.128372,0.385117l-0.128357,0.128372" id="svg_60" fill-opacity="null" stroke-opacity="null" stroke-width="null" stroke="#000" fill="none"/>
  <path d="m196.277161,181.643021c0.128357,0 0.256729,0 0.385101,0c0.128372,0 0.217392,0.058899 0.385117,0.128372c0.118591,0.049118 0.256729,0 0.513474,0c0.128372,0 0.256744,0 0.385101,0c0.128372,0 0.256744,0 0.385117,0c0.128372,0 0.256744,0 0.385101,0c0.128372,0 0.128372,0.128372 0.256744,0.128372c0.128372,0 0.256744,0 0.385117,0l0.128357,0" id="svg_61" fill-opacity="null" stroke-opacity="null" stroke-width="null" stroke="#000" fill="none"/>
  <path d="m382.669861,148.780396c0.128357,0 0.207611,-0.138123 0.256744,-0.256729c0.069458,-0.167725 0.207611,-0.138138 0.256744,-0.256744c0.069458,-0.167725 0.319153,-0.105743 0.385101,-0.385101c0.02951,-0.124939 0.079224,-0.138138 0.128357,-0.256744c0.069489,-0.16774 0.165985,-0.294342 0.256744,-0.385117c0.09079,-0.09079 0.294342,0.090759 0.385101,0c0.090759,-0.090759 0.037628,-0.165955 0.128387,-0.256729c0.090759,-0.090759 0.217377,-0.058899 0.385101,-0.128372c0.118591,-0.049118 0.128357,-0.128372 0.256744,-0.128372c0.128357,0 0.165985,-0.037598 0.256744,-0.128372c0.090759,-0.090759 0.08902,-0.187271 0.256744,-0.256729c0.118591,-0.049118 0.17749,-0.138138 0.128357,-0.256744c-0.138947,-0.335449 -0.294342,-0.551071 -0.385101,-0.641846c-0.09079,-0.09079 -0.256744,-0.128372 -0.513489,-0.256744c-0.256744,-0.128372 -0.256744,-0.256744 -0.385101,-0.256744c-0.128387,0 -0.198853,-0.250977 -0.641846,-0.385101c-0.122864,-0.037201 -0.385132,-0.128372 -0.513489,-0.256744c-0.128357,-0.128372 -0.256744,-0.128372 -0.385101,-0.256729l-0.128387,0l0,-0.128372l0,-0.128372" id="svg_64" fill-opacity="null" stroke-opacity="null" stroke-width="null" stroke="#000" fill="none"/>
  <path d="m382.541504,197.689234c0,0.128372 0.009766,0.207611 0.128357,0.256729c0.167725,0.069473 0.165985,0.294342 0.256744,0.385117c0.090759,0.090759 0.256744,0 0.256744,0.128372c0,0.128372 0.128357,0.128372 0.256714,0.128372c0.128387,0 0.217407,0.058899 0.385132,0.128357c0.118591,0.049118 0.128357,0.128372 0.256744,0.128372c0.128357,0 0.217377,0.058899 0.385101,0.128372c0.118591,0.049118 0.256744,0.128372 0.385101,0.256744c0.128357,0.128372 0.256744,0.256729 0.256744,0.385101c0,0.128372 0.049133,0.26651 0,0.385117c-0.069489,0.16774 -0.150604,0.237823 -0.256744,0.385101c-0.167816,0.232864 -0.256744,0.385117 -0.256744,0.513489c0,0.128357 -0.060883,0.147522 -0.128357,0.256729c-0.150909,0.244171 -0.294342,0.165985 -0.385101,0.256744c-0.090759,0.090775 -0.079254,0.138138 -0.128387,0.256744c-0.069458,0.167709 -0.207611,0.138123 -0.256744,0.256729c-0.069458,0.167725 -0.294342,0.16597 -0.385101,0.256744c-0.090759,0.090759 -0.256744,0 -0.256744,0.128372l-0.128357,0.128372l-0.128387,0.128357" id="svg_65" fill-opacity="null" stroke-opacity="null" stroke-width="null" stroke="#000" fill="none"/>
  <path d="m381.899628,255.455566c0,0.128372 0,0.256729 0.128387,0.385101c0.128357,0.128357 0.256744,0.128387 0.385101,0.256744c0.128387,0.128357 0.256744,0.256744 0.256744,0.385101c0,0.128387 0.138123,0.079254 0.256744,0.128387c0.167694,0.069458 0.165955,0.165955 0.256744,0.256744c0.090759,0.090759 0.037598,0.165955 0.128357,0.256714c0.090759,0.090759 0.256744,0 0.385101,0c0.128387,0 0.294342,0.037598 0.385132,0.128387c0.090759,0.090759 0.187256,0.08902 0.256714,0.256744c0.049103,0.118591 0.187286,0.08902 0.256744,0.256714c0.049133,0.118622 0.128387,0.128387 0.128387,0.256744c0,0.128387 -0.009766,0.207611 -0.128387,0.256744c-0.167725,0.069489 -0.138123,0.207611 -0.256744,0.256744c-0.167694,0.069458 -0.128357,0.256744 -0.256714,0.385101c-0.128387,0.128387 -0.315643,0.217377 -0.385132,0.385101c-0.049133,0.118622 0.053192,0.203583 -0.128357,0.385132c-0.09079,0.09079 -0.207611,0.138123 -0.256744,0.256744c-0.069458,0.167694 -0.217377,0.315613 -0.385101,0.385101c-0.118622,0.049133 -0.165955,0.165955 -0.256744,0.256744c-0.090759,0.090759 -0.165955,0.037567 -0.256744,0.128357c-0.090759,0.090759 -0.187256,0.217377 -0.256744,0.385101c-0.049133,0.118622 -0.128357,0.128387 -0.128357,0.256744c0,0.128387 -0.128387,0.128387 -0.128387,0.256744l-0.128357,0.128357l0,-0.128357" id="svg_67" fill-opacity="null" stroke-opacity="null" stroke-width="null" stroke="#000" fill="none"/>
 </g>
</svg>